<?xml version="1.0" encoding="UTF-8" ?>
<!DOCTYPE svg PUBLIC "-//W3C//DTD SVG 1.1//EN" "http://www.w3.org/Graphics/SVG/1.1/DTD/svg11.dtd">
<svg width="1000pt" height="1000pt" viewBox="0 0 1000 1000" version="1.1" xmlns="http://www.w3.org/2000/svg">
<path fill="#feffff" d=" M 0.00 0.00 L 1000.00 0.00 L 1000.00 1000.00 L 0.00 1000.00 L 0.00 0.00 Z" />
<path fill="#3c628d" d=" M 483.87 102.42 C 518.83 97.22 554.98 99.34 588.88 109.44 C 593.88 112.50 598.22 116.55 603.02 119.92 C 597.25 118.94 591.71 117.00 585.96 115.95 C 536.05 104.98 483.26 111.23 435.95 129.90 C 380.20 151.73 331.69 189.54 292.80 234.68 C 249.96 284.52 218.23 343.50 198.15 405.98 C 181.62 457.58 173.10 511.78 173.45 565.97 C 173.98 615.08 181.76 664.36 198.70 710.56 C 204.15 725.81 211.00 740.50 218.19 754.99 C 214.70 752.80 211.42 750.32 208.03 748.01 C 206.11 746.62 203.86 745.40 202.92 743.11 C 185.00 708.62 172.88 671.25 166.05 633.03 C 157.82 587.57 156.85 540.91 162.12 495.05 C 169.01 435.09 186.37 376.34 213.33 322.34 C 242.64 263.57 283.59 210.11 335.23 169.25 C 378.24 135.27 429.33 110.35 483.87 102.42 Z" />
<path fill="#5777a1" d=" M 367.49 150.59 C 414.74 120.19 470.40 101.03 526.98 102.22 C 544.16 102.15 561.30 104.55 578.07 108.22 C 582.34 109.06 585.99 111.69 588.91 114.81 C 563.82 108.47 537.72 107.39 511.99 108.98 C 459.18 113.41 408.50 133.94 365.25 164.15 C 350.74 174.10 337.11 185.28 324.05 197.05 C 315.91 204.89 307.97 212.92 300.08 221.01 C 242.85 283.26 203.80 361.16 184.23 443.19 C 175.41 481.14 170.33 520.05 170.55 559.03 C 170.22 621.14 182.16 683.81 208.77 740.15 C 209.28 741.36 209.68 742.61 210.08 743.88 C 206.09 741.72 202.53 738.52 200.68 734.30 C 183.96 699.17 172.89 661.45 167.09 623.01 C 164.91 608.42 163.45 593.73 162.45 579.02 C 162.09 560.95 161.72 542.83 162.75 524.78 C 165.76 473.46 176.56 422.62 194.54 374.46 C 214.67 320.56 243.69 269.81 281.23 226.11 C 306.36 197.18 335.07 171.15 367.49 150.59 Z" />
<path fill="#3c628d" d=" M 326.81 127.87 C 333.06 127.77 339.30 127.33 345.55 127.47 C 324.13 137.30 303.35 148.60 283.87 161.90 C 234.23 195.47 192.24 240.30 162.09 292.10 C 125.71 354.14 106.51 426.12 107.20 498.04 C 107.60 583.63 136.46 668.76 188.11 737.01 C 232.17 795.71 292.68 841.90 360.94 868.88 C 362.66 869.55 364.34 870.29 366.03 871.06 C 360.02 871.49 354.00 871.96 347.99 872.41 C 346.07 872.44 344.06 872.84 342.22 872.14 C 272.53 845.46 210.62 798.87 165.71 739.27 C 111.57 668.09 82.31 578.43 84.20 489.00 C 85.44 411.24 109.98 334.03 153.84 269.81 C 194.24 210.15 251.06 161.77 316.39 131.37 C 319.73 129.86 323.00 127.79 326.81 127.87 Z" />
<path fill="#3c628d" d=" M 490.41 155.62 C 527.33 138.30 567.90 126.87 608.97 128.65 C 634.31 129.77 659.57 136.50 681.43 149.53 C 709.72 166.20 731.14 192.94 744.25 222.79 C 749.72 235.10 753.97 247.93 757.10 261.02 C 759.14 267.95 758.86 275.30 758.53 282.44 C 751.06 248.02 735.81 214.45 710.73 189.26 C 695.73 173.99 677.22 162.21 657.05 155.05 C 639.42 148.71 620.66 145.88 601.97 145.72 C 574.60 145.72 547.42 151.27 521.68 160.42 C 526.36 160.82 531.08 160.67 535.75 161.23 C 535.19 165.82 535.45 170.63 534.08 175.07 C 529.58 181.89 524.88 188.60 520.17 195.27 C 498.76 195.24 477.36 195.29 455.96 195.25 C 455.35 194.49 454.75 193.74 454.15 192.98 C 449.78 195.60 445.46 198.33 441.25 201.20 C 445.67 212.60 449.81 224.12 454.89 235.25 C 455.30 236.52 456.52 238.07 455.17 239.21 C 432.94 263.63 410.66 288.05 388.42 312.48 C 387.75 313.07 387.05 313.63 386.33 314.15 C 384.96 307.45 383.13 300.82 382.14 294.05 C 383.70 276.71 386.02 259.43 387.79 242.10 C 352.87 272.53 321.97 307.40 294.74 344.82 C 253.83 401.49 221.31 464.40 200.34 531.14 C 198.80 536.40 196.91 541.59 195.88 546.99 C 245.45 603.88 305.14 651.51 369.81 690.16 C 389.92 701.97 410.39 713.21 431.53 723.07 C 433.21 704.88 434.59 686.66 436.44 668.48 C 416.53 660.78 396.41 653.50 377.07 644.44 C 378.46 644.51 379.92 644.33 381.28 644.81 C 455.00 676.16 532.32 699.82 611.72 711.27 C 648.39 716.19 685.55 719.41 722.52 716.30 C 743.35 714.69 764.15 711.39 784.05 704.88 C 798.29 699.99 812.27 693.56 823.90 683.82 C 835.60 674.22 844.79 661.10 847.82 646.10 C 850.59 635.12 849.68 623.63 847.17 612.70 C 844.94 602.31 840.91 592.37 835.96 582.99 C 834.89 581.17 834.47 579.10 834.39 577.02 C 841.32 587.79 846.19 599.83 849.55 612.16 C 854.01 629.01 853.61 647.70 845.48 663.40 C 840.02 674.68 830.85 683.60 820.94 691.01 C 818.45 701.52 815.95 712.28 810.97 722.01 C 800.75 743.82 782.79 761.44 761.76 772.90 C 733.21 788.63 700.29 794.61 668.00 795.57 C 628.01 796.82 588.18 790.41 549.54 780.55 C 550.01 785.68 550.62 790.80 550.74 795.96 C 529.79 813.46 508.93 831.08 488.03 848.64 C 467.16 831.04 446.26 813.47 425.34 795.94 C 426.72 775.86 428.75 755.82 430.48 735.77 C 361.09 701.86 296.61 657.68 240.60 604.46 C 220.86 585.46 202.15 565.36 185.08 543.93 C 180.25 538.93 179.52 531.65 177.91 525.20 C 183.05 531.72 188.28 538.17 193.69 544.47 C 193.72 540.34 192.56 536.11 193.86 532.08 C 206.21 487.56 223.99 444.64 245.81 403.95 C 282.82 335.53 331.17 272.87 390.13 221.96 C 390.88 214.23 391.82 206.52 392.68 198.81 C 403.78 186.53 414.96 174.32 426.12 162.09 C 429.49 170.30 432.44 178.68 435.77 186.91 C 439.00 184.70 442.29 182.56 445.60 180.47 C 444.28 178.48 442.75 176.61 441.71 174.45 C 440.85 170.10 440.75 165.63 440.33 161.22 C 454.17 160.30 468.06 160.19 481.90 159.41 C 484.89 158.56 487.54 156.80 490.41 155.62 Z" />
<path fill="#889fb3" d=" M 314.40 134.42 C 319.08 133.19 324.30 131.34 329.05 133.17 C 280.14 157.19 235.94 190.96 200.48 232.38 C 152.05 288.37 119.71 358.03 107.99 431.12 C 103.63 459.81 101.48 488.97 103.56 517.95 C 107.77 596.86 136.18 674.22 183.74 737.30 C 207.92 769.39 236.89 797.89 269.44 821.44 C 294.53 839.74 321.91 854.73 350.39 867.02 C 345.85 869.31 340.47 868.23 335.71 867.29 C 268.47 839.38 209.19 792.65 166.24 733.87 C 123.10 675.20 96.38 604.57 90.06 532.01 C 86.40 492.25 88.89 451.95 97.09 412.88 C 111.68 343.52 145.00 278.19 192.73 225.78 C 226.96 187.94 268.52 156.75 314.40 134.42 Z" />
<path fill="#5777a1" d=" M 454.66 164.26 C 470.71 162.97 486.87 163.01 502.97 163.37 C 509.04 163.58 515.15 163.37 521.17 164.30 C 521.38 169.00 521.72 174.03 519.44 178.32 C 517.13 182.76 514.93 187.25 512.61 191.67 C 496.25 191.90 479.87 191.60 463.50 191.85 C 460.34 184.33 454.14 177.59 454.59 168.99 C 454.58 167.41 454.62 165.83 454.66 164.26 Z" />
<path fill="#3c628d" d=" M 520.02 238.17 C 530.84 213.15 539.86 187.39 549.95 162.08 C 561.12 174.28 572.25 186.52 583.38 198.76 C 586.90 230.16 590.56 261.56 593.89 292.99 C 593.30 300.29 591.14 307.41 589.51 314.55 C 566.41 289.03 543.11 263.70 520.02 238.17 Z" />
<path fill="#889fb3" d=" M 444.16 164.44 C 447.66 164.35 451.16 164.30 454.66 164.26 C 454.62 165.83 454.58 167.41 454.59 168.99 C 454.14 177.59 460.34 184.33 463.50 191.85 C 461.17 191.83 458.85 191.76 456.53 191.63 C 452.90 185.68 448.32 180.35 444.70 174.40 C 443.94 171.14 444.24 167.75 444.16 164.44 Z" />
<path fill="#5777a1" d=" M 400.69 193.88 C 408.41 185.31 416.66 177.19 424.87 169.07 C 434.20 191.62 441.98 214.81 451.77 237.18 C 445.43 245.31 438.02 252.54 431.35 260.41 C 421.75 270.96 412.23 281.59 402.72 292.23 C 401.16 285.86 398.41 279.65 398.56 272.99 C 398.63 266.99 398.65 260.99 399.12 255.00 C 399.70 243.01 399.41 230.98 399.88 218.98 C 400.66 210.63 400.21 202.24 400.69 193.88 Z" />
<path fill="#5777a1" d=" M 551.18 169.01 C 558.24 175.87 564.99 183.05 571.98 189.99 C 573.60 191.68 575.69 193.46 575.51 196.05 C 575.90 222.36 576.83 248.65 577.31 274.95 C 576.86 280.80 574.78 286.38 573.45 292.06 C 564.20 282.44 555.64 272.15 546.52 262.39 C 539.24 253.86 531.21 245.96 524.27 237.15 C 534.14 214.81 541.92 191.61 551.18 169.01 Z" />
<path fill="#889fb3" d=" M 400.69 193.88 C 400.21 202.24 400.66 210.63 399.88 218.98 C 399.41 230.98 399.70 243.01 399.12 255.00 C 398.65 260.99 398.63 266.99 398.56 272.99 C 398.41 279.65 401.16 285.86 402.72 292.23 C 398.01 297.03 393.54 302.07 388.82 306.85 C 387.39 306.81 387.77 305.03 387.35 304.14 C 386.71 299.71 384.72 295.50 384.61 291.02 C 387.86 263.68 391.20 236.34 394.38 208.99 C 394.74 206.16 394.85 203.27 395.66 200.52 C 397.01 198.08 398.95 196.04 400.69 193.88 Z" />
<path fill="#3c628d" d=" M 431.76 287.96 C 442.08 276.40 452.63 265.05 463.02 253.56 C 479.70 253.47 496.37 253.49 513.05 253.55 C 523.47 265.03 533.98 276.44 544.35 287.96 C 533.95 308.16 523.54 328.35 513.19 348.57 C 496.40 348.69 479.60 348.74 462.82 348.55 C 452.61 328.28 442.06 308.19 431.76 287.96 Z" />
<path fill="#5777a1" d=" M 463.82 257.08 C 465.48 255.79 467.67 256.40 469.60 256.43 C 481.38 257.58 493.24 256.94 505.05 256.81 C 506.83 256.59 507.56 258.47 508.41 259.66 C 513.99 269.15 520.03 278.36 525.44 287.96 C 519.17 307.00 512.57 325.95 505.88 344.85 C 493.94 345.39 481.96 344.57 470.02 345.28 C 463.56 326.15 456.94 307.07 450.37 287.97 C 456.57 277.74 462.76 267.51 468.99 257.30 C 467.26 257.21 465.54 257.12 463.82 257.08 Z" />
<path fill="#889fb3" d=" M 435.42 288.01 C 444.87 277.68 454.26 267.30 463.82 257.08 C 465.54 257.12 467.26 257.21 468.99 257.30 C 462.76 267.51 456.57 277.74 450.37 287.97 C 456.94 307.07 463.56 326.15 470.02 345.28 C 468.11 345.24 466.22 345.10 464.34 344.87 C 454.86 325.84 445.01 306.99 435.42 288.01 Z" />
<path fill="#3c628d" d=" M 462.84 365.31 C 479.62 365.08 496.42 365.13 513.21 365.28 C 520.55 450.01 527.96 534.73 535.52 619.43 C 543.12 617.87 550.90 617.19 558.46 615.38 C 558.45 616.10 558.43 617.53 558.42 618.25 C 550.83 619.49 543.17 620.36 535.47 620.28 C 537.65 643.95 539.65 667.65 541.76 691.33 C 585.53 701.01 630.15 707.55 675.03 708.27 C 707.24 708.59 739.91 706.29 770.83 696.67 C 786.41 691.74 801.63 684.75 814.21 674.17 C 816.91 672.36 816.41 668.82 816.80 666.03 C 817.74 656.40 817.62 646.69 816.62 637.08 C 816.03 632.20 815.86 627.18 814.09 622.55 L 814.01 621.71 C 814.14 621.11 814.55 620.66 814.93 620.21 C 815.73 625.66 818.47 630.56 819.43 635.97 C 821.26 645.87 822.36 655.92 822.55 666.00 C 834.08 653.38 839.95 636.04 839.04 619.02 C 838.08 599.14 830.21 580.29 820.09 563.42 C 822.66 563.67 823.59 566.30 824.80 568.19 C 832.77 582.42 839.28 597.78 841.41 614.06 C 843.60 627.85 841.27 642.35 834.91 654.77 C 827.40 669.43 814.28 680.38 800.07 688.25 C 785.98 695.85 770.59 700.79 755.00 704.21 C 736.27 708.08 717.18 710.40 698.05 710.60 C 661.16 711.66 624.24 708.54 587.86 702.50 C 514.00 690.17 442.09 667.65 373.14 638.65 C 373.57 638.36 374.42 637.77 374.85 637.48 C 393.26 645.40 412.01 652.50 430.87 659.29 C 432.89 660.05 434.97 660.65 437.10 661.07 C 445.44 562.47 454.47 463.91 462.84 365.31 Z" />
<path fill="#5777a1" d=" M 465.86 369.18 C 467.83 367.46 470.66 368.28 473.04 368.24 C 482.24 369.40 491.52 368.35 500.75 369.04 C 505.43 472.98 509.82 576.93 514.49 680.87 C 514.49 682.03 514.46 683.20 514.42 684.38 C 495.95 680.37 478.11 673.98 459.85 669.22 L 460.63 669.04 C 461.02 668.95 461.82 668.78 462.22 668.69 C 462.46 654.44 463.10 640.22 463.93 626.00 C 464.90 615.34 464.21 604.61 465.32 593.97 C 465.42 584.64 466.60 575.36 466.53 566.03 C 466.53 559.33 467.52 552.68 467.50 545.98 C 467.42 536.98 468.69 528.04 468.56 519.04 C 470.44 483.71 471.20 448.33 473.39 413.01 C 473.38 398.38 474.91 383.81 474.79 369.19 C 471.81 369.20 468.83 369.23 465.86 369.18 Z" />
<path fill="#889fb3" d=" M 465.81 369.18 L 465.86 369.18 C 468.83 369.23 471.81 369.20 474.79 369.19 C 474.91 383.81 473.38 398.38 473.39 413.01 C 471.20 448.33 470.44 483.71 468.56 519.04 C 468.69 528.04 467.42 536.98 467.50 545.98 C 467.52 552.68 466.53 559.33 466.53 566.03 C 466.60 575.36 465.42 584.64 465.32 593.97 C 464.21 604.61 464.90 615.34 463.93 626.00 C 463.10 640.22 462.46 654.44 462.22 668.69 C 461.82 668.78 461.02 668.95 460.63 669.04 C 453.82 667.14 447.16 664.71 440.49 662.39 C 447.58 582.29 454.39 502.16 461.38 422.05 C 462.83 404.43 464.64 386.83 465.81 369.18 Z" />
<path fill="#889fb3" d=" M 574.99 383.54 C 632.39 381.62 690.14 383.39 746.94 392.44 C 748.21 392.67 749.55 392.79 750.71 393.45 C 752.02 394.16 753.35 394.92 754.85 395.20 C 772.67 398.49 790.30 402.84 807.52 408.49 C 825.53 414.78 843.58 422.36 858.29 434.79 C 868.04 442.99 876.30 454.75 875.85 468.00 C 876.13 477.19 872.30 485.93 867.35 493.48 C 857.33 508.27 842.97 519.39 828.29 529.24 C 802.89 545.68 775.15 558.12 746.93 568.84 C 726.47 576.53 705.68 583.31 684.67 589.31 C 684.57 589.69 684.35 590.47 684.25 590.85 C 683.14 591.16 682.03 591.44 680.93 591.71 C 675.29 590.89 670.02 593.63 664.67 594.94 C 665.29 595.06 666.53 595.28 667.15 595.39 C 648.35 600.84 629.15 604.83 610.00 608.87 C 592.87 612.32 575.72 615.79 558.42 618.25 C 558.43 617.53 558.45 616.10 558.46 615.38 C 583.75 610.46 609.08 605.55 634.08 599.27 C 642.09 597.52 649.91 594.80 657.95 593.37 C 661.53 593.94 665.08 592.95 668.35 591.53 C 668.72 591.26 669.45 590.72 669.81 590.46 L 668.70 590.14 C 670.18 590.36 671.76 590.86 673.27 590.36 C 708.57 580.24 743.46 568.32 776.72 552.67 C 790.24 546.20 803.55 539.24 816.12 531.07 C 829.85 522.17 842.95 511.93 853.27 499.13 C 860.37 489.97 866.14 478.89 865.57 466.99 C 865.31 455.23 858.44 444.75 850.05 436.98 C 837.38 425.18 821.41 417.74 805.44 411.51 C 784.44 403.76 762.60 398.46 740.58 394.61 C 734.48 393.76 728.42 391.87 722.21 392.73 C 709.49 391.29 696.80 389.29 684.02 388.21 C 655.77 385.40 627.37 384.35 599.00 383.85 C 590.99 384.55 582.99 383.70 574.99 383.54 Z" />
<path fill="#3c628d" d=" M 722.21 392.73 C 728.42 391.87 734.48 393.76 740.58 394.61 C 762.60 398.46 784.44 403.76 805.44 411.51 C 821.41 417.74 837.38 425.18 850.05 436.98 C 858.44 444.75 865.31 455.23 865.57 466.99 C 866.14 478.89 860.37 489.97 853.27 499.13 C 842.95 511.93 829.85 522.17 816.12 531.07 C 803.55 539.24 790.24 546.20 776.72 552.67 C 743.46 568.32 708.57 580.24 673.27 590.36 C 671.76 590.86 670.18 590.36 668.70 590.14 C 686.80 585.45 704.56 579.48 722.17 573.22 C 749.58 563.29 776.64 551.97 801.78 537.13 C 795.73 529.69 789.13 522.72 782.84 515.48 C 790.71 521.38 797.49 528.51 803.98 535.87 C 817.07 528.08 829.66 519.25 840.55 508.55 C 849.79 499.33 858.21 488.29 860.69 475.19 C 863.06 463.89 858.94 452.03 851.58 443.41 C 843.26 433.42 832.14 426.28 820.68 420.40 C 805.16 412.71 788.68 407.13 771.93 402.78 C 755.57 398.46 738.96 395.10 722.21 392.73 Z" />
<path fill="#3c628d" d=" M 750.71 393.45 C 772.05 396.70 793.10 401.88 813.58 408.67 C 830.75 414.80 847.88 422.20 862.00 433.98 C 871.25 441.84 879.32 452.44 880.21 464.96 C 881.33 478.71 874.10 491.42 865.46 501.53 C 850.11 518.98 830.20 531.58 809.99 542.67 C 809.26 543.05 807.81 543.81 807.08 544.19 C 768.13 564.51 726.34 578.64 684.25 590.85 C 684.35 590.47 684.57 589.69 684.67 589.31 C 705.68 583.31 726.47 576.53 746.93 568.84 C 775.15 558.12 802.89 545.68 828.29 529.24 C 842.97 519.39 857.33 508.27 867.35 493.48 C 872.30 485.93 876.13 477.19 875.85 468.00 C 876.30 454.75 868.04 442.99 858.29 434.79 C 843.58 422.36 825.53 414.78 807.52 408.49 C 790.30 402.84 772.67 398.49 754.85 395.20 C 753.35 394.92 752.02 394.16 750.71 393.45 Z" />
<path fill="#5777a1" d=" M 807.08 544.19 C 807.81 543.81 809.26 543.05 809.99 542.67 C 818.29 551.98 825.57 562.19 832.22 572.75 C 832.99 574.12 834.06 575.43 834.39 577.02 C 834.47 579.10 834.89 581.17 835.96 582.99 C 840.91 592.37 844.94 602.31 847.17 612.70 C 849.68 623.63 850.59 635.12 847.82 646.10 C 844.79 661.10 835.60 674.22 823.90 683.82 C 812.27 693.56 798.29 699.99 784.05 704.88 C 764.15 711.39 743.35 714.69 722.52 716.30 C 685.55 719.41 648.39 716.19 611.72 711.27 C 532.32 699.82 455.00 676.16 381.28 644.81 C 379.92 644.33 378.46 644.51 377.07 644.44 C 368.82 641.63 361.06 637.40 353.08 633.87 C 337.19 626.34 321.27 618.76 306.00 610.04 C 306.56 610.14 307.69 610.32 308.25 610.42 C 307.12 608.46 305.96 606.52 304.67 604.67 C 327.78 616.20 351.06 627.42 374.85 637.48 C 374.42 637.77 373.57 638.36 373.14 638.65 C 442.09 667.65 514.00 690.17 587.86 702.50 C 624.24 708.54 661.16 711.66 698.05 710.60 C 717.18 710.40 736.27 708.08 755.00 704.21 C 770.59 700.79 785.98 695.85 800.07 688.25 C 814.28 680.38 827.40 669.43 834.91 654.77 C 841.27 642.35 843.60 627.85 841.41 614.06 C 839.28 597.78 832.77 582.42 824.80 568.19 C 823.59 566.30 822.66 563.67 820.09 563.42 C 816.01 556.83 811.63 550.45 807.08 544.19 Z" />
<path fill="#feffff" d=" M 684.25 590.85 C 726.34 578.64 768.13 564.51 807.08 544.19 C 811.63 550.45 816.01 556.83 820.09 563.42 C 830.21 580.29 838.08 599.14 839.04 619.02 C 839.95 636.04 834.08 653.38 822.55 666.00 C 822.36 655.92 821.26 645.87 819.43 635.97 C 818.47 630.56 815.73 625.66 814.93 620.21 C 814.55 620.66 814.14 621.11 814.01 621.71 L 814.09 622.55 C 815.86 627.18 816.03 632.20 816.62 637.08 C 817.62 646.69 817.74 656.40 816.80 666.03 C 816.41 668.82 816.91 672.36 814.21 674.17 C 801.63 684.75 786.41 691.74 770.83 696.67 C 739.91 706.29 707.24 708.59 675.03 708.27 C 630.15 707.55 585.53 701.01 541.76 691.33 C 539.65 667.65 537.65 643.95 535.47 620.28 C 543.17 620.36 550.83 619.49 558.42 618.25 C 575.72 615.79 592.87 612.32 610.00 608.87 C 629.15 604.83 648.35 600.84 667.15 595.39 C 671.72 594.09 676.32 592.88 680.93 591.71 C 682.03 591.44 683.14 591.16 684.25 590.85 Z" />
<path fill="#3c628d" d=" M 657.95 593.37 C 661.87 592.31 665.74 590.87 669.81 590.46 C 669.45 590.72 668.72 591.26 668.35 591.53 C 665.08 592.95 661.53 593.94 657.95 593.37 Z" />
<path fill="#3c628d" d=" M 664.67 594.94 C 670.02 593.63 675.29 590.89 680.93 591.71 C 676.32 592.88 671.72 594.09 667.15 595.39 C 666.53 595.28 665.29 595.06 664.67 594.94 Z" />
<path fill="#3c628d" d=" M 289.66 596.66 C 294.67 599.31 299.77 601.83 304.67 604.67 C 305.96 606.52 307.12 608.46 308.25 610.42 C 307.69 610.32 306.56 610.14 306.00 610.04 C 299.40 607.25 294.68 601.54 289.66 596.66 Z" />
<path fill="#889fb3" d=" M 439.74 670.16 C 447.24 671.91 454.32 675.10 461.67 677.42 C 461.05 688.27 460.53 699.13 460.21 710.00 C 459.16 718.34 460.29 726.83 458.60 735.10 C 450.76 731.73 442.96 728.28 435.23 724.67 C 436.54 706.49 438.59 688.35 439.74 670.16 Z" />
<path fill="#5777a1" d=" M 461.67 677.42 C 479.22 683.23 496.92 688.61 514.78 693.46 C 516.27 714.57 516.77 735.75 517.76 756.90 C 497.58 751.03 478.12 742.97 458.55 735.38 L 458.60 735.10 C 460.29 726.83 459.16 718.34 460.21 710.00 C 460.53 699.13 461.05 688.27 461.67 677.42 Z" />
<path fill="#feffff" d=" M 735.65 718.03 C 761.14 715.19 786.79 709.75 809.69 697.78 C 800.70 722.61 781.93 743.21 759.13 756.19 C 730.78 772.52 697.79 778.80 665.42 780.13 C 625.95 781.53 586.53 775.64 548.34 765.96 C 546.29 744.08 544.47 722.18 542.55 700.29 C 587.80 710.88 633.93 718.42 680.45 719.81 C 698.86 720.55 717.31 719.79 735.65 718.03 Z" />
<path fill="#889fb3" d=" M 433.86 738.12 C 435.69 738.56 437.47 739.19 439.15 740.06 C 445.60 743.24 452.32 745.83 458.74 749.06 C 458.24 755.37 457.58 761.68 457.59 768.03 C 457.58 776.71 456.23 785.35 456.61 794.04 C 456.56 796.03 457.70 797.74 458.70 799.38 C 466.68 811.38 474.21 823.66 482.19 835.66 C 483.40 837.46 484.17 839.50 484.86 841.55 C 466.24 826.35 447.70 811.06 429.20 795.73 C 430.36 776.50 432.55 757.34 433.86 738.12 Z" />
<path fill="#5777a1" d=" M 458.74 749.06 C 474.50 755.65 490.34 762.08 506.51 767.60 C 510.23 768.96 514.13 769.81 517.73 771.48 C 519.49 775.69 518.47 780.55 519.06 785.02 C 518.98 789.54 520.53 794.67 517.64 798.63 C 508.22 813.26 498.83 827.91 489.42 842.54 C 488.37 844.82 485.29 843.59 484.86 841.55 C 484.17 839.50 483.40 837.46 482.19 835.66 C 474.21 823.66 466.68 811.38 458.70 799.38 C 457.70 797.74 456.56 796.03 456.61 794.04 C 456.23 785.35 457.58 776.71 457.59 768.03 C 457.58 761.68 458.24 755.37 458.74 749.06 Z" />
</svg>
