<?xml version="1.0" encoding="utf-8"?>
<!-- Generator: Adobe Illustrator 15.1.0, SVG Export Plug-In . SVG Version: 6.00 Build 0)  -->
<!DOCTYPE svg PUBLIC "-//W3C//DTD SVG 1.1//EN" "http://www.w3.org/Graphics/SVG/1.1/DTD/svg11.dtd">
<svg version="1.1"
	 id="svg2876" sodipodi:docname="sliced_bread.svg" xmlns:inkscape="http://www.inkscape.org/namespaces/inkscape" xmlns:sodipodi="http://sodipodi.sourceforge.net/DTD/sodipodi-0.dtd" xmlns:dc="http://purl.org/dc/elements/1.1/" inkscape:version="0.48.2 r9819" xmlns:svg="http://www.w3.org/2000/svg" xmlns:cc="http://creativecommons.org/ns#" xmlns:rdf="http://www.w3.org/1999/02/22-rdf-syntax-ns#"
	 xmlns="http://www.w3.org/2000/svg" xmlns:xlink="http://www.w3.org/1999/xlink" x="0px" y="0px" width="91.21px" height="100px"
	 viewBox="3.519 1.505 91.21 100" enable-background="new 3.519 1.505 91.21 100" xml:space="preserve">
<sodipodi:namedview  inkscape:zoom="2.6641777" bordercolor="#666666" id="namedview2888" inkscape:pageopacity="0" inkscape:window-height="738" objecttolerance="10" inkscape:pageshadow="2" guidetolerance="10" pagecolor="#ffffff" inkscape:window-y="-8" inkscape:cx="61.286872" showgrid="false" inkscape:window-width="1280" gridtolerance="10" borderopacity="1" inkscape:window-maximized="1" inkscape:cy="46.023245" inkscape:current-layer="g3015" inkscape:window-x="-8">
	</sodipodi:namedview>
<defs>
	
	
		<inkscape:perspective  id="perspective2892" inkscape:vp_x="0 : 44.29134 : 1" sodipodi:type="inkscape:persp3d" inkscape:persp3d-origin="44.29134 : 29.52756 : 1" inkscape:vp_z="88.58268 : 44.29134 : 1" inkscape:vp_y="0 : 1000 : 0">
		</inkscape:perspective>
	
		<inkscape:perspective  id="perspective3682" inkscape:vp_x="0 : 50 : 1" sodipodi:type="inkscape:persp3d" inkscape:persp3d-origin="45 : 33.333333 : 1" inkscape:vp_z="90 : 50 : 1" inkscape:vp_y="0 : 1000 : 0">
		</inkscape:perspective>
	
		<inkscape:perspective  id="perspective3743" inkscape:vp_x="0 : 44.29134 : 1" sodipodi:type="inkscape:persp3d" inkscape:persp3d-origin="44.29134 : 29.52756 : 1" inkscape:vp_z="88.58268 : 44.29134 : 1" inkscape:vp_y="0 : 1000 : 0">
		</inkscape:perspective>
	
		<inkscape:perspective  id="perspective3769" inkscape:vp_x="0 : 44.29134 : 1" sodipodi:type="inkscape:persp3d" inkscape:persp3d-origin="44.29134 : 29.52756 : 1" inkscape:vp_z="88.58268 : 44.29134 : 1" inkscape:vp_y="0 : 1000 : 0">
		</inkscape:perspective>
</defs>
<path id="path3258" inkscape:connector-curvature="0" d="M36.847,85.236l42.1-52.569l-14.209-9.948L29.743,80.264L36.847,85.236
	L36.847,85.236z"/>
<path id="path3250" inkscape:connector-curvature="0" d="M4.599,97.465c2.454-4.273,5.67-7.484,10.765-7.96
	c2.848-0.268,6.422,0.58,9.001-0.042c1.531-0.372,2.59-1.264,3.474-2.549l1.229-1.786l3.573,2.458l-1.228,1.787
	c-1.607,2.336-3.686,3.919-6.512,4.441c-3.098,0.57-6.045-0.314-9.062-0.018c-3.625,0.355-5.766,2.843-7.48,5.828l-1.08,1.88
	l-3.759-2.161L4.599,97.465L4.599,97.465z"/>
<path id="path3229" inkscape:connector-curvature="0" d="M91.984,25.387c4.807-6.865,3.138-16.331-3.728-21.137
	c-6.864-4.807-16.33-3.137-21.138,3.728c-1.848,2.64-2.737,5.667-2.743,8.665l20.405,14.286
	C87.596,29.899,90.136,28.027,91.984,25.387z"/>
</svg>
