<svg xmlns="http://www.w3.org/2000/svg" xmlns:xlink="http://www.w3.org/1999/xlink" version="1.1" x="0px" y="0px" width="100px" height="100px" viewBox="0 0 100 100" enable-background="new 0 0 100 100" xml:space="preserve">
<g id="Captions">
</g>
<g id="Your_Icon">
	<path d="M90.302,38H9.698C7.7,38,6,39.697,6,41.696v51.671C6,95.365,7.7,97,9.698,97h80.604c2,0,3.698-1.635,3.698-3.633V41.696   C94,39.697,92.302,38,90.302,38z M70.19,87.726c-1.121,1.122-12.488,1.281-25.527,1.281c-14.248,0-28.089-0.214-29.156-1.281   c-1.068-1.068-2.243-10.086-2.243-20.078c0-10.244,1.015-19.172,2.243-20.4c1.228-1.228,15.808-1.815,29.37-1.815   c13.776,0,24.298,0.801,25.313,1.815c1.014,1.016,2.027,9.801,2.027,19.759C72.218,77.282,71.312,86.604,70.19,87.726z M88,86.408   C88,87.074,87.589,88,86.921,88h-6.229C80.026,88,79,87.074,79,86.408V48.672C79,48.006,80.026,47,80.692,47h6.229   C87.589,47,88,48.006,88,48.672V86.408z"/>
	<circle cx="83.808" cy="51.411" r="1.816"/>
	<circle cx="83.808" cy="56.433" r="1.816"/>
	<path d="M85.624,61.56c0,1.002-0.814,1.814-1.816,1.814c-1.004,0-1.816-0.812-1.816-1.814c0-1.005,0.812-1.816,1.816-1.816   C84.81,59.743,85.624,60.555,85.624,61.56z"/>
	<circle cx="83.807" cy="71.455" r="3.222"/>
	<circle cx="83.807" cy="82.208" r="3.222"/>
	<path d="M52.484,30.744c-0.288-0.072-0.578-0.135-0.871-0.191c-0.972-0.184-1.974-0.281-2.998-0.281   c-1.208,0-2.384,0.135-3.515,0.388c-0.295,0.067-0.586,0.141-0.875,0.224c-4.354,1.238-7.952,2.138-9.943,6.117h28.666   C60.878,32.862,57.071,31.883,52.484,30.744z"/>
	<path d="M26.937,1.374c-0.129-0.198-0.394-0.253-0.591-0.125c-0.198,0.128-0.254,0.393-0.126,0.591l18.006,28.289   c0.289-0.082,0.58-0.157,0.875-0.222L26.937,1.374z"/>
	<path d="M70.718,1.162c-0.207-0.114-0.467-0.04-0.58,0.167L51.613,29.8c0.293,0.055,0.583,0.119,0.871,0.19L70.884,1.743   C70.997,1.536,70.923,1.277,70.718,1.162z"/>
</g>
</svg>